<svg width="25" height="26" viewBox="0 0 25 26" fill="none" xmlns="http://www.w3.org/2000/svg">
<path d="M12.5142 0C13.4942 0.01128 14.4704 0.124347 15.4269 0.337388C15.8446 0.430388 16.1569 0.778015 16.2043 1.20262L16.4315 3.23842C16.5343 4.17316 17.3247 4.88113 18.2669 4.88212C18.5201 4.88252 18.7707 4.82985 19.0046 4.72645L20.8748 3.90609C21.2638 3.73546 21.7181 3.82849 22.0085 4.13817C23.36 5.57953 24.3665 7.30822 24.9523 9.19413C25.0786 9.6008 24.9333 10.0427 24.59 10.2954L22.9324 11.5155C22.4596 11.8624 22.1802 12.4134 22.1802 12.9994C22.1802 13.5852 22.4596 14.1362 22.9334 14.4839L24.5926 15.7044C24.9358 15.957 25.0814 16.399 24.9549 16.8058C24.3694 18.6914 23.3635 20.4199 22.0128 21.8615C21.7227 22.1711 21.2686 22.2645 20.8796 22.0942L19.0019 21.2727C18.4648 21.0379 17.8478 21.0723 17.3401 21.3654C16.8325 21.6583 16.4946 22.175 16.4301 22.757L16.2043 24.7926C16.1578 25.2123 15.8522 25.5577 15.4408 25.6554C13.5068 26.1149 11.4918 26.1149 9.55789 25.6554C9.14648 25.5577 8.8409 25.2123 8.79436 24.7926L8.56894 22.7601C8.50274 22.1791 8.16436 21.6641 7.65709 21.3721C7.14982 21.0801 6.53389 21.0458 5.99846 21.2793L4.12034 22.1009C3.73131 22.2711 3.2771 22.1778 2.98703 21.8679C1.63559 20.4247 0.629612 18.694 0.0447936 16.8064C-0.081156 16.3999 0.0643811 15.9582 0.407501 15.7058L2.0676 14.4844C2.54045 14.1375 2.81972 13.5866 2.81972 13.0007C2.81972 12.4147 2.54045 11.8638 2.06698 11.5164L0.407928 10.2972C0.0642876 10.0446 -0.081383 9.6024 0.0450206 9.19546C0.63084 7.30955 1.63736 5.58087 2.98882 4.1395C3.27919 3.82982 3.73361 3.7368 4.12257 3.90742L5.99234 4.72764C6.53036 4.96343 7.14887 4.92781 7.65888 4.63027C8.16668 4.33613 8.50475 3.81897 8.57002 3.23686L8.79711 1.20262C8.84453 0.777802 9.15711 0.430054 9.57494 0.337254C10.5326 0.12456 11.5099 0.0115334 12.5142 0ZM12.4975 8.99996C10.2853 8.99996 8.49195 10.7908 8.49195 13C8.49195 15.2091 10.2853 17 12.4975 17C14.7098 17 16.5031 15.2091 16.5031 13C16.5031 10.7908 14.7098 8.99996 12.4975 8.99996Z" fill="#735933"/>
</svg>
